# xmcd
#
# Track frame offsets:
#	150
#	15078
#	34925
#	56447
#	74774
#	95072
#	114600
#	137045
#	151904
#	169998
#	188082
#	205778
#	219757
#	238180
#	254677
#
# Disc length: 3647 seconds
#
# Revision: 1
# Processed by: cddbd v1.5.1PL2 Copyright (c) Steve Scherf et al.
# Submitted via: audiograbber 1.83.01
#
DISCID=d50e3d0f
DTITLE=Various Artist - SC8877
DYEAR=1900
DGENRE=
TTITLE0=GENTRY, MONTGOMERY - IF YOU EVER STOP LOVING ME 
TTITLE1=PAISLEY, BRAD/KRAUSS, ALLISON  - WHISKEY LULLABY   
TTITLE2=CAGLE, CHRIS - I'D BE LYING   
TTITLE3=MCBRIDE, MARTINA - HOW FAR 
TTITLE4=DIXIE CHICKS - TRUTH NO 2
TTITLE5=MCGRAW, TIM - REAL GOOD MAN 
TTITLE6=URBAN, KEITH  - YOU'LL THINK OF ME  
TTITLE7=WILLIAMS JR, HANK - JUST GET A LONG NECK  
TTITLE8=NICHOLS, JOE - IF NOBODY BELIEVED IN YOU   
TTITLE9=LONESTAR - LET'S BE US AGAIN 
TTITLE10=GRACIN, JOSH - I WANT TO LIVE 
TTITLE11=JONES, NORAH/PARTON, DOLLU - CREEPIN IN 
TTITLE12=KEITH, TOBY - WHISKEY GIRL  
TTITLE13=WILSON, GRETCHEN  - REDNECK WOMAN
TTITLE14=BIG/RICH - WILD WEST SHOW 
EXTD=
EXTT0=
EXTT1=
EXTT2=
EXTT3=
EXTT4=
EXTT5=
EXTT6=
EXTT7=
EXTT8=
EXTT9=
EXTT10=
EXTT11=
EXTT12=
EXTT13=
EXTT14=
PLAYORDER=
